<?xml version="1.0" encoding="UTF-8"?>
<svg id="_레이어_1" xmlns="http://www.w3.org/2000/svg" version="1.1" viewBox="0 0 63.1 15.4">
  <!-- Generator: Adobe Illustrator 29.0.1, SVG Export Plug-In . SVG Version: 2.1.0 Build 192)  -->
  <defs>
    <style>
      .st0 {
        fill: #b2b2b2;
      }
    </style>
  </defs>
  <polygon class="st0" points="2.1 37.2 58.8 37.2 52.6 31.1 53.3 30.4 60.7 37.7 53.3 45.3 52.6 44.7 58.8 38.2 2.1 38.2 2.1 37.2"/>
  <polygon class="st0" points="60.7 7.3 4 7.3 10.2 1.2 9.5 .5 2.1 7.8 9.5 15.4 10.2 14.7 4 8.3 60.7 8.3 60.7 7.3"/>
  <polygon class="st0" points="64.7 8.2 121.3 8.2 115.1 14.3 115.9 15 123.2 7.7 115.9 0 115.1 .7 121.3 7.2 64.7 7.2 64.7 8.2"/>
</svg>